HIERARCHY
ROOT Hips
{
  OFFSET 100.201 96.4065 82.2496
  CHANNELS 6 Xposition Yposition Zposition Zrotation Xrotation Yrotation
  JOINT RightUpLeg
  {
    OFFSET -8.9458 -8.66707 0.101652
    CHANNELS 3 Zrotation Xrotation Yrotation
    JOINT RightLeg
    {
      OFFSET 0 -44.4227 1.3727
      CHANNELS 3 Zrotation Xrotation Yrotation
      JOINT RightFoot
      {
        OFFSET 0.253549 -42.0924 -1.46059
        CHANNELS 3 Zrotation Xrotation Yrotation
        JOINT RightToes
        {
          OFFSET 0.04 -4.41509 8.4991
          CHANNELS 3 Zrotation Xrotation Yrotation
          End Site
          {
            OFFSET -0.08 -0.137448 9.77979
          }
        }
      }
    }
  }
  JOINT Spine
  {
    OFFSET 0 11.8905 0
    CHANNELS 3 Zrotation Xrotation Yrotation
    JOINT Spine1
    {
      OFFSET 0 25.6574 0.127663
      CHANNELS 3 Zrotation Xrotation Yrotation
      JOINT HEad
      {
        OFFSET 0 8.73416 0.011341
        CHANNELS 3 Zrotation Xrotation Yrotation
        End Site
        {
          OFFSET -0.29 12.7742 2.51395
        }
      }
      JOINT LeftShoulder1
      {
        OFFSET 8.99 -0.362252 -0.22
        CHANNELS 3 Zrotation Xrotation Yrotation
        JOINT LeftArm
        {
          OFFSET 10.2827 -0.00338 0.322123
          CHANNELS 3 Zrotation Xrotation Yrotation
          JOINT LeftForeArm
          {
            OFFSET 32.7669 0.099144 -1.42434
            CHANNELS 3 Zrotation Xrotation Yrotation
            JOINT LeftHand
            {
              OFFSET 27.5643 0.085362 1.02216
              CHANNELS 3 Zrotation Xrotation Yrotation
              End Site
              {
                OFFSET 16.7443 -0.6 1.50291
              }
            }
          }
        }
      }
      JOINT RightShoulder
      {
        OFFSET -8.99 -0.362252 -0.22
        CHANNELS 3 Zrotation Xrotation Yrotation
        JOINT RightArm
        {
          OFFSET -10.2827 -0.00338 0.322123
          CHANNELS 3 Zrotation Xrotation Yrotation
          JOINT RightForeArm
          {
            OFFSET -32.8971 0.099144 -1.42434
            CHANNELS 3 Zrotation Xrotation Yrotation
            JOINT RightHand
            {
              OFFSET -27.4921 0.085362 1.02216
              CHANNELS 3 Zrotation Xrotation Yrotation
              End Site
              {
                OFFSET -16.6312 -0.6 1.50291
              }
            }
          }
        }
      }
    }
  }
  JOINT LeftUpLeg
  {
    OFFSET 8.9458 -8.66707 0.101652
    CHANNELS 3 Zrotation Xrotation Yrotation
    JOINT LeftLeg
    {
      OFFSET 0 -44.4227 1.3727
      CHANNELS 3 Zrotation Xrotation Yrotation
      JOINT LeftFoot
      {
        OFFSET -0.253549 -42.0924 -1.46059
        CHANNELS 3 Zrotation Xrotation Yrotation
        JOINT LeftToes
        {
          OFFSET -0.04 -4.41509 8.4991
          CHANNELS 3 Zrotation Xrotation Yrotation
          End Site
          {
            OFFSET 0.08 -0.047448 9.77979
          }
        }
      }
    }
  }
}
MOTION
Frames:	9
Frame Time:	0.0166667
0	104.196	0	1.01536	2.8424	161.961	1.09603	2.01213	-0.440681	2.4792	8.50257	-20.3501	0.494145	-6.36274	-0.171178	0.0462048	0.000533964	0.662642	-0.196996	-2.69377	-0.990755	-0.441385	-5.38093	-1.99432	1.19609	12.36	14.5361	0.00E+00	0.00E+00	-3.18E-15	-2.96453	-12.3566	-9.84818	1.35334	12.705	-7.26849	4.35128	9.38655	3.77819	0.00E+00	0.00E+00	-3.18E-15	1.37004	-7.88227	-4.90603	1.05339	11.3571	-4.329	-2.88059	10.2718	-6.59105	-2.36169	2.98863	7.93684	2.5819	9.59212	-8.75083	-4.14464	-14.8653	-0.976178	1.45E-14	3.26E-14	3.18E-15
-0.0003	104.196	-0.005	1.02811	2.84368	161.916	1.10685	2.01525	-0.383681	2.47556	8.50866	-20.3444	0.498372	-6.35913	-0.16573	0.0462048	0.000533964	0.662642	-0.189597	-2.69165	-0.987061	-0.426352	-5.37684	-1.98656	1.19793	12.3481	14.5627	-1.77E-31	3.18E-15	3.18E-15	-2.85714	-12.4078	-9.65569	1.32139	12.231	-7.37115	4.40265	9.33664	3.79798	-1.77E-31	3.18E-15	3.18E-15	1.32844	-7.85467	-4.89657	1.06302	11.408	-4.32463	-2.88512	10.2846	-6.58054	-2.35608	2.99988	7.98776	2.57712	9.58431	-8.75099	-4.14846	-14.8577	-0.972102	1.37E-14	3.14E-14	6.36E-15
-0.0042	104.196	-0.013	1.02897	2.85219	161.873	1.09487	2.02129	-0.362742	2.4834	8.51663	-20.3426	0.499133	-6.3618	-0.143608	0.0462048	0.000533964	0.662642	-0.186007	-2.69161	-0.978473	-0.420972	-5.37931	-1.96925	1.23797	12.364	14.553	-2.65E-31	1.59E-15	9.54E-15	-2.83889	-12.4773	-9.57139	1.2628	12.0903	-7.31901	4.45124	9.29992	3.86214	-2.65E-31	1.59E-15	9.54E-15	1.29601	-7.76996	-4.90742	1.07683	11.4188	-4.33279	-2.87825	10.2866	-6.58027	-2.36939	3.00936	8.01299	2.57494	9.58244	-8.73564	-4.15117	-14.848	-0.970489	1.19E-14	3.22E-14	9.54E-15
-0.0112	104.195	-0.021	1.02084	2.86311	161.846	1.06953	2.02931	-0.386538	2.49028	8.52377	-20.3123	0.496641	-6.37101	-0.131142	0.0462048	0.000533964	0.662642	-0.183106	-2.69221	-0.971936	-0.425752	-5.38136	-1.95628	1.31644	12.3917	14.5101	-1.59E-15	0	3.18E-15	-2.86231	-12.5586	-9.54467	1.18192	12.2364	-7.20026	4.38308	9.32581	3.92385	-1.59E-15	0	3.18E-15	1.29682	-7.7207	-4.94198	1.07715	11.4055	-4.35658	-2.88005	10.2709	-6.60431	-2.39513	3.01302	8.00986	2.57549	9.58723	-8.6989	-4.15631	-14.8375	-0.969437	1.45E-14	3.06E-14	0.00E+00
-0.0218	104.195	-0.031	1.01657	2.87258	161.831	1.04802	2.03897	-0.437191	2.49397	8.53051	-20.2536	0.493847	-6.38268	-0.127549	0.0462048	0.000533964	0.662642	-0.181027	-2.69106	-0.971781	-0.432253	-5.37565	-1.9546	1.39316	12.4183	14.4567	1.59E-15	3.18E-15	-3.18E-15	-2.92127	-12.6285	-9.52268	1.11864	12.4589	-7.08037	4.19987	9.35963	3.96286	1.59E-15	3.18E-15	-3.18E-15	1.31399	-7.7506	-4.99322	1.06939	11.4281	-4.38586	-2.85787	10.2628	-6.64092	-2.41887	3.0151	7.99782	2.58407	9.59827	-8.67476	-4.16461	-14.8352	-0.968917	1.43E-14	3.18E-14	3.18E-15
-0.0338	104.194	-0.043	1.01326	2.88119	161.819	1.03018	2.05053	-0.468522	2.49465	8.53431	-20.2143	0.492431	-6.39469	-0.127193	0.0462048	0.000533964	0.662642	-0.179491	-2.6856	-0.9737	-0.435146	-5.36472	-1.95848	1.42946	12.4358	14.4252	0	0.00E+00	3.18E-15	-3.02418	-12.693	-9.50188	1.09753	12.603	-6.95716	4.00839	9.32908	4.02733	0	0.00E+00	3.18E-15	1.30705	-7.82742	-5.04245	1.08199	11.5222	-4.40198	-2.78909	10.2766	-6.65967	-2.44355	3.01572	7.98798	2.59704	9.607	-8.6612	-4.17264	-14.8348	-0.968832	1.57E-14	3.14E-14	3.18E-15
-0.0473	104.193	-0.055	1.01329	2.88776	161.806	1.01631	2.05705	-0.457358	2.49681	8.54158	-20.2205	0.491423	-6.40767	-0.129134	0.0462048	0.000533964	0.662642	-0.178442	-2.6805	-0.975468	-0.431127	-5.35453	-1.9634	1.41911	12.4442	14.3938	-1.77E-31	1.59E-15	6.36E-15	-3.14915	-12.7668	-9.47091	1.10635	12.616	-6.86619	3.90183	9.27627	4.09077	-1.77E-31	1.59E-15	6.36E-15	1.27475	-7.84755	-5.08965	1.09694	11.6106	-4.39646	-2.70506	10.3018	-6.66884	-2.46155	3.01513	7.98011	2.60755	9.61833	-8.64615	-4.1791	-14.8355	-0.969109	1.57E-14	3.22E-14	6.36E-15
-0.0602	104.192	-0.062	1.01587	2.89364	161.79	1.01025	2.05747	-0.416092	2.49762	8.55394	-20.2481	0.490611	-6.4189	-0.13243	0.0462048	0.000533964	0.662642	-0.177843	-2.67641	-0.976752	-0.423827	-5.34642	-1.96625	1.3867	12.4448	14.3636	7.95E-16	1.59E-15	0.00E+00	-3.27058	-12.8475	-9.41055	1.14363	12.5776	-6.84173	3.90139	9.29097	4.09681	7.95E-16	1.59E-15	0.00E+00	1.22182	-7.78954	-5.12073	1.11288	11.6492	-4.38207	-2.65831	10.3072	-6.67152	-2.4727	3.01346	7.98626	2.6125	9.62858	-8.63597	-4.1809	-14.8364	-0.969673	1.37E-14	3.34E-14	3.18E-15
-0.0705	104.191	-0.065	1.01874	2.90061	161.767	1.00732	2.05525	-0.373118	2.4952	8.56919	-20.2642	0.489776	-6.42793	-0.136137	0.0462048	0.000533964	0.662642	-0.177662	-2.67299	-0.977635	-0.416696	-5.33773	-1.96844	1.34795	12.4374	14.3385	0.00E+00	0.00E+00	-3.18E-15	-3.38326	-12.9206	-9.33905	1.1946	12.596	-6.87784	3.9568	9.32587	4.04938	0.00E+00	0.00E+00	-3.18E-15	1.16099	-7.70225	-5.12036	1.1256	11.6802	-4.38921	-2.6623	10.3048	-6.67146	-2.4776	3.01095	8.00706	2.61297	9.6361	-8.64781	-4.18068	-14.8366	-0.970452	1.35E-14	3.14E-14	9.54E-15
